<?xml version="1.0" encoding="utf-8"?>
<!-- Generator: Adobe Illustrator 19.1.0, SVG Export Plug-In . SVG Version: 6.00 Build 0)  -->
<svg version="1.1" id="Layer_1" xmlns="http://www.w3.org/2000/svg" xmlns:xlink="http://www.w3.org/1999/xlink" x="0px" y="0px"
	 viewBox="0 0 1920 1080" style="enable-background:new 0 0 1920 1080;" xml:space="preserve">
<style type="text/css">
	.st0{fill:none;stroke:#000000;stroke-miterlimit:10;}
</style>
<path class="st0" d="M234.8,368.7c0-40.1-13.5-46.3-34.8-49.3l-28.2-3.8c-4.1-2.5-4.6-10.7,0.5-12.7c71.9,11.9,109-0.3,155.5-1.8
	c42.7-1.4,78.8,3.1,111.8,15.2c68.6,24.9,105.7,82.8,105.7,149.9c0,64.6-33.5,120-91.5,151.5c-33,17.8-68.8,24.4-108,24.4
	c-32.5,0-50.5-9.8-88.6-8.5c-31.8,1.1-47.8,3.9-72.6,6.4c-3.1-1.5-4.1-9.7-1-12.7l11.7-1.5c32.7-4.6,39.8-6.7,39.4-64V368.7z"/>
<path class="st0" d="M276.5,550.2c0,26.9,2.5,43.2,11.7,54.9c13.2,16.8,29,21.3,61,21.3c98.6,0,142.8-64.6,142.8-159.1
	c0-55.9-26.9-150.5-160.1-150.5c-30,0-35.2,4.3-43.5,11c-5.8,4.7-11.9,11.9-11.9,34.8V550.2z"/>
<path class="st0" d="M853.1,492.2c0-23.7-6.4-25.2-20.1-34.3l-4.6-3c-2-2-2-7.6,0.5-9.1c29.4-5.1,35.4-6.9,58.7-25.1
	c2.5,0,4.6,1,5.1,3c-1,17.8-2,45.2-2,66.1v123c0,36.6-4.3,59.6-13,80c-27.6,49.5-43.4,52.8-106.5,88.8c-6.1-1-8.6-5.4-6.5-10.5
	c80.4-50.7,90.4-68.3,88.4-150.7V492.2z"/>
<path class="st0" d="M896.7,347.4c0,18.8-13.4,27.9-28.4,27.9c-16.6,0-27.3-12.3-27.3-27.3c0-17.7,12.9-28.4,28.9-28.4
	C886,319.5,896.7,332.4,896.7,347.4z"/>
<path class="st0" d="M1270.9,488.2c-7.6-18.8-14-35.7-36.7-38.6l-10.2-1.5c-3-4.1-2.5-11.2,1.5-12.7c12.7,1,36.7,2.5,54,2.5
	c13.7,0,28.5-0.9,45.8-1.9c3.6,2,4.1,10.2,0.5,12.7l-10.7,1.4c-15.8,2.5-16.3,5.1-11.2,20.3c11.7,35.1,26.4,70.7,38.1,97.1
	c4.6,10.2,6.6,14.7,8.1,16.3c2-1.5,5.6-8.6,9.7-19.3l29-74.7c7.1-17.8,9.1-28.5,9.1-31.5c0-4.6-3-6.6-9.1-7.6l-16.8-1.7
	c-3.1-3.6-2.5-10.7,1-12.7c15.8,1,33.6,1.7,43.2,1.7c12.7,0,25.1-0.9,39.3-1.9c3.6,2,4.1,9.7,1,12.7l-11.3,1.4
	c-17.8,2.5-22.4,15.8-37.1,44.2c-7.1,13.7-38.6,87.4-46.8,108.3c-5.1,12.7-10.2,24.4-16.8,41.7c-1,1.5-3,2-5.1,2
	c-2.5,0-5.1-0.5-6.6-2c-4.1-14.2-11.7-34.1-19.3-52.9L1270.9,488.2z"/>
<path class="st0" d="M1559.1,563.4c0,35.1,8.6,58.5,47.3,58.5c13.7,0,30-5.6,41.2-15.2c6.6-6.1,10.2-13.7,10.2-29.5v-83.4
	c0.1-35.1-4.5-35.5-23.4-42l-7.4-1.7c-3.6-2-4-11.2,0.5-11.2c37.1,0,53.8-13.7,64.9-18.8c2.5,0.5,4.1,1.5,4.6,3.6
	c-1,9.7-1.6,36.2-1.6,55v85.4c0,40.2,1.5,55.4,15.8,55.4c5.4,0,26.8-3.9,36.5-5.8c2.2-0.4,4.4,0.9,4.9,3c0.8,3.1,0.6,7.2-0.8,9.5
	c-0.6,0.9-1.6,1.5-2.7,1.8c-19.9,4-52.6,7.4-85.2,22.5c-2.5,0-5.1-1.5-6.1-3.6v-20.8c0-4.6-1.5-7.1-4.6-7.1
	c-15.2,9.7-40.2,26.4-70.1,26.4c-44.7,0-61.5-22.4-61.5-63.5v-84.9c0-34.8-1.9-39.4-19.2-44.8l-9.7-2.7c-3-2.5-2.9-11.2,1-11.2
	c42.3,0.1,50.8-14.1,62-18.2c3.1,0.5,4.6,1.5,5.1,3.6c-1,8.6-1.6,30.1-1.6,55V563.4z"/>
<path class="st0" d="M1008.9,474.2c0.2,11.8-9.6,21.6-25.6,22.9c-16,1.3-13.1-15.1-11.5-23.1c2.2-10.6,6.7-22.2,20.1-34.1
	c13.4-11.9,33.1-17.8,59-17.8c30.1,0,50.5,9.8,61.2,29.3c5.7,10.7,8.6,26.3,8.6,46.8v93.3c0,9,0.6,15.2,1.9,18.6
	c2,6,6.2,9.1,12.6,9.1c3.6,0,6.5-0.5,8.8-1.6c1.3-0.6,3.1-1.7,5.4-3.2c2.8-1.9,6.7,0.1,6.7,3.6v2.3c0,1-0.4,2-1,2.8
	c-4.7,5.5-9.7,10.1-15,13.7c-8.7,5.9-17.5,8.8-26.5,8.8c-10.5,0-18.2-3.4-22.9-10.2c-3.4-5-5.6-8.7-6.7-15.1
	c-0.6-3.1-4.2-4.3-6.8-2.4c-10.2,7.5-17.5,11.7-24.5,15.8c-14.1,8.4-27.5,12.6-40.2,12.6c-13.3,0-24.9-4.7-34.7-14.1
	c-9.8-9.4-14.7-21.3-14.7-35.7c0-22.5,11.2-41.2,33.7-56.3c13-8.5,38.1-19.1,74.4-33.8c7.1-2.9,10.9-9.7,10.9-15.9v-8
	c0-15.8-1.2-24-4.3-30.2c-5.3-10.4-16.2-15.6-32.8-15.6c-7.9,0-15.8,1.4-22.6,6C1016.9,446.5,1008.4,452.7,1008.9,474.2z"/>
<path class="st0" d="M1082,525.2c0-3.5-3.5-6-6.8-4.8c-14.8,5.3-27.3,11-37.4,17.2c-22.3,13.8-33.5,25.2-33.5,42.7
	c0,14.1,4.7,24.5,14,31.2c6,4.3,12.8,6.5,20.2,6.5c10.2,0,20-2.9,29.4-8.6c9.4-5.7,14.1-13,14.1-21.9V525.2z"/>
<path class="st0" d="M783.2,554.1c-2-0.7-4.2,0.1-5.4,1.9c-8.6,14.1-15.5,26.9-35.4,43.4c-10.6,8.8-24,12.8-39.8,12.8
	c-19.5,0-35.9-6.2-50.5-24.6c-11.2-14.2-18.5-28.3-21.3-53.7c-0.4-3.8,2.2-7.1,5.9-7.1c0,0,34.8,0.2,71.1-0.6
	c46.2-1.1,64.8-1.2,64.7-16.2l-0.1-4.1h0c-0.3-27.1-8.1-46.3-23.6-61.2c-15.9-15.1-35.8-22.7-56.9-22.7c-28.6,0-54.9,11.3-72.7,34
	c-17.8,22.7-26.7,49.6-26.7,80.8c0,28.7,7.7,54.1,23,76.2c15.3,22.1,40.2,33.1,68.3,33.1c24.4,0,44.6-8.8,61.9-25.2
	c20.6-19.6,33.9-42.6,40.3-60.6C786.9,557.8,785.6,555,783.2,554.1L783.2,554.1z"/>
<path class="st0" d="M643.1,462.7c11-17.5,26.8-23.8,43.8-23.8c17.2,0,30.2,4.3,40.9,20.5c4.6,7,7.3,12.4,9.9,33.3
	c1.1,8.8,1.2,14.7-15.3,15.8c-16.5,1.1-88.2,0.8-88.2,0.8c-2.6,0-4.6-2.3-4.3-4.9C632.3,480.1,638.3,470.4,643.1,462.7z"/>
</svg>
