# Blender v2.76 (sub 0) OBJ File: 'face.blend'
# www.blender.org
mtllib feature-points.mtl
o untitled_untitled.001
v 0.000000 -2.393659 -0.958658
v 0.541878 -2.394775 -1.240350
v 1.005321 -2.223301 -1.621005
v 1.437635 -1.962210 -2.064035
v 1.820089 -1.613631 -2.580766
v 2.114336 -1.156012 -3.066905
v 2.287903 -0.606483 -3.258143
v 2.393205 -0.031654 -3.291598
v 2.458430 0.544361 -3.364422
v 0.397146 1.569922 -0.742861
v 0.696981 1.640751 -0.855992
v 1.013767 1.641004 -0.974205
v 1.323460 1.547820 -1.100324
v 1.590796 1.360600 -1.267190
v 0.000000 0.955340 -0.816968
v 0.000000 0.621912 -0.546936
v 0.000000 0.304963 -0.261346
v 0.000000 -0.000000 0.000000
v 0.000000 -0.501212 -0.571225
v 0.146453 -0.492232 -0.612036
v 0.302128 -0.446497 -0.659797
v 0.574721 0.859729 -1.185273
v 0.765222 1.003231 -1.168687
v 1.013999 1.007390 -1.185091
v 1.223421 0.877599 -1.210169
v 1.017930 0.804141 -1.172980
v 0.791379 0.810484 -1.163436
v 0.000000 -0.925740 -0.526184
v 0.207697 -0.934118 -0.689349
v 0.400740 -1.061683 -0.839841
v 0.580466 -1.254940 -1.059215
v 0.408809 -1.398016 -0.945414
v 0.212599 -1.477087 -0.848704
v 0.000000 -1.482074 -0.748685
v 0.000000 -1.093309 -0.619629
v 0.202123 -1.109881 -0.838307
v 0.192154 -1.300437 -0.890178
v 0.000000 -1.307391 -0.719865
vt 0.976074 0.649619
vt 0.989946 0.772212
vt 0.727286 0.729491
vt 0.805419 0.832079
vt 0.748562 0.862066
vt 0.682746 0.754968
vt 0.682697 0.874763
vt 0.629836 0.753261
vt 0.615323 0.868595
vt 0.551554 0.848130
vt 0.589321 0.724516
vt 0.471572 0.725183
vt 0.468898 0.642428
vt 0.635399 0.713228
vt 0.683582 0.712413
vt 0.953679 0.529307
vt 0.466619 0.562268
vt 0.916765 0.406050
vt 0.464717 0.485835
vt 0.531346 0.427867
vt 0.462796 0.411997
vt 0.498237 0.415961
vt 0.854184 0.286494
vt 0.772844 0.187850
vt 0.590543 0.281760
vt 0.680900 0.111066
vt 0.554035 0.253334
vt 0.582336 0.055997
vt 0.512305 0.234165
vt 0.474319 0.041652
vt 0.466000 0.227961
vt 0.552319 0.310277
vt 0.511262 0.335245
vt 0.465366 0.328531
vt 0.465324 0.292358
vt 0.510077 0.292741
vt 0.507957 0.291535
vt 0.465287 0.287728
vn 0.864700 -0.034600 0.501100
vn 0.721000 -0.490700 0.489300
vn 0.325800 -0.325800 0.887500
vn 0.130000 0.018200 0.991400
vn 0.252400 -0.370900 0.893700
vn 0.067800 -0.192400 0.979000
vn 0.322400 -0.388800 0.863100
vn 0.405100 -0.408300 0.818000
vn 0.230800 -0.408500 0.883100
vn 0.450600 -0.388100 0.803900
vn 0.516200 0.539000 0.665600
vn 0.152000 0.873600 0.462300
vn 0.368400 -0.758100 0.538200
vn 0.811800 -0.115400 0.572500
vn 0.386600 0.617300 0.685100
vn 0.000400 -0.828100 0.560500
vn 0.775500 -0.102100 0.623100
vn 0.789000 -0.035800 0.613300
vn 0.934300 0.232000 0.270800
vn 0.799300 0.002700 0.600900
vn 0.224000 -0.732600 0.642800
vn 0.390500 -0.669500 0.631900
vn 0.808600 0.096500 0.580300
vn 0.781000 0.064000 0.621200
vn 0.734200 -0.069700 0.675400
vn 0.634700 -0.160100 0.756000
vn 0.657800 -0.131600 0.741600
vn 0.493600 -0.185500 0.849700
vn 0.420700 -0.203600 0.884100
vn 0.450800 -0.208700 0.867900
vn 0.768400 -0.050600 0.638000
vn 0.736000 -0.078800 0.672400
vn 0.541700 -0.155000 0.826200
vn 0.323100 -0.119500 0.938800
vn 0.273500 -0.128900 0.953200
vn 0.617700 0.083000 0.782000
vn 0.554600 -0.405300 0.726800
vn 0.604200 -0.526300 0.598300
vn 0.161400 -0.641000 0.750400
vn 0.167600 -0.667600 0.725400
vn 0.354700 0.283200 0.891100
vn 0.344200 0.252200 0.904400
vn 0.638100 0.245200 0.729900
vn 0.423900 -0.147400 0.893600
usemtl Material.001
s off
f 8/1/1 9/2/1 25/3/1
f 9/2/2 14/4/2 25/3/2
f 13/5/3 24/6/3 14/4/3
f 14/4/4 24/6/4 25/3/4
f 12/7/5 23/8/5 13/5/5
f 13/5/6 23/8/6 24/6/6
f 11/9/7 23/8/7 12/7/7
f 10/10/8 22/11/8 11/9/8
f 11/9/9 22/11/9 23/8/9
f 10/10/10 15/12/10 22/11/10
f 15/12/11 16/13/11 22/11/11
f 16/13/12 27/14/12 22/11/12
f 8/1/13 25/3/13 26/15/13
f 7/16/14 8/1/14 26/15/14
f 16/13/15 17/17/15 27/14/15
f 7/16/16 26/15/16 27/14/16
f 7/16/17 27/14/17 17/17/17
f 6/18/18 7/16/18 17/17/18
f 17/17/19 18/19/19 21/20/19
f 6/18/20 17/17/20 21/20/20
f 18/19/21 19/21/21 20/22/21
f 18/19/22 20/22/22 21/20/22
f 5/23/23 6/18/23 21/20/23
f 4/24/24 5/23/24 31/25/24
f 3/26/25 4/24/25 31/25/25
f 3/26/26 31/25/26 32/27/26
f 2/28/27 3/26/27 32/27/27
f 2/28/28 32/27/28 33/29/28
f 1/30/29 33/29/29 34/31/29
f 1/30/30 2/28/30 33/29/30
f 5/23/31 21/20/31 31/25/31
f 21/20/32 30/32/32 31/25/32
f 21/20/33 29/33/33 30/32/33
f 20/22/34 29/33/34 21/20/34
f 19/21/35 29/33/35 20/22/35
f 19/21/36 28/34/36 29/33/36
f 28/34/37 35/35/37 29/33/37
f 35/35/38 36/36/38 29/33/38
f 29/33/39 36/36/39 30/32/39
f 30/32/40 36/36/40 31/25/40
f 31/25/41 37/37/41 32/27/41
f 32/27/42 37/37/42 33/29/42
f 33/29/43 37/37/43 38/38/43
f 33/29/44 38/38/44 34/31/44
