<?xml version="1.0" encoding="utf-8"?>
<!-- Generator: Adobe Illustrator 19.1.0, SVG Export Plug-In . SVG Version: 6.00 Build 0)  -->
<svg version="1.1" id="Layer_1" xmlns="http://www.w3.org/2000/svg" xmlns:xlink="http://www.w3.org/1999/xlink" x="0px" y="0px"
	 viewBox="0 0 1920 1080" style="enable-background:new 0 0 1920 1080;" xml:space="preserve">
<style type="text/css">
	.st0{fill:none;stroke:#000000;}
</style>
<g>
	<path class="st0" d="M238.3,607.7c5.8-2.5,12.6-4.2,20.3-5c11.2-1.3,19.5-3.9,25-8c4.2-8.7,6.4-30.7,6.4-66.2v-37.3l0.5-22.4
		l-0.5-16.5l0.5-30.5l-0.7-76.8c0-8.7-1.3-14.3-3.8-17c-3.6-3.9-13.2-7.6-28.8-10.9c-6.5-1.4-10.4-2.7-11.8-3.9
		c-1.4-1.2-2.3-3.4-2.6-6.7c3.6-0.8,6.1-1.2,7.6-1.2h16.8l8.7-0.2c5.8,0,12.3,0.6,19.4,1.9c14.5,0.9,29.4,1.4,44.6,1.4
		c4.4,0,10.7-0.2,18.9-0.7c21.7-1.3,37.3-1.9,46.7-1.9c19,0,37,1.9,53.9,5.7c16.9,3.8,34.4,10.8,52.3,21
		c11.2,6.5,22.6,16.6,34.4,30.6c11.7,13.9,20.6,29.1,26.7,45.6c6.1,16.4,9.1,35,9.1,55.6c0,18.4-3.3,36.7-10,54.8
		c-6.7,18.1-16,33.8-28,47.1c-12,13.3-24.1,23.3-36.4,30c-12.3,6.7-31,12.5-56.2,17.4c-10.4,1.9-29,2.8-56,2.8
		c-17.8,0-32.3-0.6-43.4-1.7c-4.4-0.6-9.1-0.9-14.2-0.9c-0.8,0-1.7,0.1-2.6,0.2l-96.3,1.9l-0.5-1.9c-0.3-0.8-0.5-1.7-0.5-2.6
		L238.3,607.7z M358.5,598.3c12,4.1,24.1,6.1,36.4,6.1c15.9,0,31.5-2.5,46.7-7.4c15.3-5,28.8-12,40.5-21c11.7-9,21.4-19.3,28.9-30.7
		c7.6-11.4,12.9-21.7,16.1-30.8c4.4-13.4,6.6-30.8,6.6-52.2c0-20.5-4.3-41.2-13-62.3c-6-14.6-16.5-28.6-31.5-42
		c-15-13.4-32.8-23.2-53.2-29.4c-20.5-6.2-42.6-9.3-66.3-9.3c-16.4,0-28.5,1.8-36.4,5.4c-0.9,0.9-1.9,2-2.8,3.3
		c-0.9,3.9-1.4,7.6-1.4,10.9c0,2,0.1,4.5,0.2,7.3c0.5,18.3,0.7,32.9,0.7,43.9l-0.2,53.6c0,78.7,1.5,122.5,4.4,131.4
		C337,583.9,345.1,591.7,358.5,598.3z"/>
	<path class="st0" d="M792.4,487.6l-94.7,0.7l-17.9,0c-7.2,0-14.6,0.3-22.2,1c-1.4,4.7-2.1,7.9-2.1,9.7l0.2,2.4v2.4l-0.2,11.6
		c0,9.6,3,21.4,9.1,35.3c6.1,13.9,14.7,24.6,26,31.9c11.3,7.3,25.3,11.2,42.1,11.7c9-0.5,16.1-1.6,21.5-3.3
		c5.3-1.7,12.9-5.7,22.7-12l17-13.9l1.4,9.4c0,1.1-0.1,2.3-0.2,3.5c-7.1,9-16.1,16.8-26.9,23.6c-10.9,6.8-21.9,11.7-33.1,14.9
		c-5.4,1.4-14.2,2.1-26.4,2.1c-11.2,0-22.2-2.3-33.1-6.8c-16.1-6.9-28.7-18.1-37.9-33.4c-9.2-15.3-13.8-34-13.8-55.8
		c0-6.9,1.3-15.8,3.9-26.7c2.6-10.9,7.3-22.4,14-34.7c4.6-8.3,10.2-15.2,16.8-20.5c9.4-7.6,17.7-12.8,24.8-15.8
		c10.2-4.2,22.1-6.4,35.6-6.4c14.6,0,26.6,2.7,35.9,8c12.6,7.1,22,16.2,28.2,27.4c6.2,11.2,9.3,21.4,9.3,30.7V487.6z M660.7,479.1
		h11.1c8,0,31.9-1.3,71.8-3.8c6.3-0.3,10.2-0.9,11.6-1.9c2.8-3,4.2-5.7,4.2-8c0-4.9-1.6-10.4-4.7-16.6c-3.1-6.2-8-11-14.5-14.4
		c-6.5-3.4-14.1-5.1-22.8-5.1c-18.3,0-32.9,6.8-43.9,20.5C664.9,460.2,660.7,469.9,660.7,479.1z"/>
	<path class="st0" d="M937.6,734l17.9-21.9c4.2-6.8,7.6-13.8,10-21.2c2.4-7.4,4.1-16.5,5.1-27.4c1.4-18.1,2.1-34,2.1-47.7
		c0-3.9-0.2-9.4-0.5-16.5l0.2-36.8c0.2-46.1-0.2-75.8-0.9-89.2c-0.5-8.3-1.7-13.5-3.8-15.6c-3-2.8-9.8-4.7-20.5-5.7
		c-1.1-0.2-2.7-0.3-4.7-0.5l0.5-9.1c20.5-5.2,35.4-14,44.7-26.3c2-2.5,4.3-5,6.8-7.6l1.6-0.2c0.8,0,1.9,0.3,3.3,0.9l0.7,85.9
		c1.1,60,1.6,92.5,1.6,97.7c0,30.2-1.5,52.1-4.6,65.7c-3.1,13.6-8.8,27.2-17.3,40.7c-6,9.4-14.5,19.2-25.6,29.3l-9.6,8.7l-3.3,1.9
		C939.9,738.2,938.7,736.4,937.6,734z M957.9,326.6c0-6,2-11,6-15c4-4,8.9-6,14.5-6c5.8,0,10.7,2,14.8,5.9c4,3.9,6,9.1,6,15.3
		c0,6.5-2.2,12.1-6.6,17c-3.2,3.5-7.8,5.2-13.9,5.2c-5.8,0-10.7-2.1-14.8-6.3C959.9,338.6,957.9,333.2,957.9,326.6z"/>
	<path class="st0" d="M1230.3,580.1c0.9,2,1.4,3.5,1.4,4.5c0,2.4-1.9,6.5-5.7,12.5c-4.9,7.9-10.3,13.6-16.3,17.2
		c-3.8,2.4-9,3.5-15.6,3.5c-11.3,0-19.8-3.5-25.5-10.4c-3.5-4.1-5.9-11.4-7.3-22L1135,604c-9.3,5.4-16.4,8.7-21.2,10.2
		c-7.9,2-17.3,3.1-28.3,3.1c-8,0-14.4-2.4-19-7.2c-4.6-4.8-7-11-7-18.5c0-10.9,6.7-23.8,20-39s31.4-27.5,54.3-37.1
		c16.1-6.8,25.9-11.1,29.6-13c0.3-5.2,0.5-10.9,0.5-17c0-20-2.8-33.5-8.4-40.6c-5.6-7.1-13.6-10.6-24-10.6
		c-10.9,0-21.1,4.2-30.6,12.7c-5.8,5.4-10.3,15.4-13.3,30.2c-0.9,4.1-2.8,8.5-5.4,13.2c-6.8,4.4-12.2,6.6-16.3,6.6
		c-3.5,0-6.6-1-9.4-3.1c-1.6-1.1-2.4-2.4-2.4-3.8c0-4.1,4.4-13.3,13.1-27.7c8.7-14.4,19.8-25.2,33.1-32.3
		c13.3-7.2,24.9-10.7,34.8-10.7c13.5,0,23.6,1.2,30.2,3.7c6.6,2.4,12.4,6.7,17.5,12.9c5,6.1,8.1,12.8,9.2,20.1
		c0.6,3.5,0.9,15.8,0.9,37.1l-0.7,37.5l0.2,27.4c0,3.6-0.1,6.7-0.2,9.2c-0.2,4.6-0.2,7.9-0.2,10.2c0,5.2,1.5,9.4,4.5,12.5
		c3,3.2,6.5,4.7,10.6,4.7c6,0,11.1-3,15.3-9l2.8-3.8C1225.9,581.3,1227.7,580.7,1230.3,580.1z M1161.2,573.3
		c1.1-20,1.7-34.1,1.7-42.3c0-4.2-0.2-10-0.7-17.2c-10.6,3.8-21.8,9.5-33.6,17.2c-11.8,7.7-21.2,16.6-28.2,26.7
		c-5.1,7.2-7.6,14.1-7.6,20.5c0,6.1,2.1,11.3,6.3,15.3c4.2,4.1,9.4,6.1,15.8,6.1c4.9,0,10.8-1.7,17.8-5.2
		C1141.7,589.9,1151.2,582.9,1161.2,573.3z"/>
	<path class="st0" d="M1225.8,424.5c17.5,0.2,32.7,0.8,45.8,1.9c9.3,0,16.1-0.2,20.3-0.5c3-0.2,4.9-0.2,5.7-0.2l26.4,0.2
		c3.6,0.6,6.5,1,8.7,1.2c0.9,0.3,1.8,1.2,2.6,2.6c0,1.6-0.5,3.2-1.4,5c-2.7,0.8-5.4,1.2-8.3,1.4c-11.8,1.2-21.7,3-29.7,5.4
		c-1.1,0.8-1.7,1.6-1.7,2.3c0,1.6,0.8,4,2.4,7.2c0.3,0.8,1,2.7,2.1,5.7l23.7,56.7c10.6,26,20.3,47.9,29.3,65.7
		c6.1-11.7,11.8-23.7,16.9-36.2c5.2-12.4,12.8-32.1,22.8-58.9c2.8-7.6,5.5-16.9,8-28c0.5-2.2,0.7-4.1,0.7-5.6c0-1.9-1.1-4-3.2-6.2
		c-2.1-2.3-5.7-4.1-10.7-5.5c-1.1-0.2-8.3-1.3-21.5-3.5c-1.1-0.6-2.1-1.5-3.1-2.6v-1.9c0-0.8,0.1-1.8,0.2-3.1
		c3.8-0.5,6.5-0.7,8.3-0.7l27.9,0.2c1.9,0,6.4-0.2,13.5-0.7c25,0,40.1,0.2,45.1,0.7c0.9,0.3,1.8,1.3,2.6,2.8c0,1.4-0.5,3-1.4,4.7
		l-7.3,1.9c-1.9,0.2-3.4,0.3-4.5,0.5c-13.5,1.3-21.9,3.1-25,5.6c-2.4,1.7-6.1,9.8-11.1,24.2c-2.4,7.1-5.8,16.1-10.4,26.9l-12.3,29.8
		c-1.7,4.3-3.6,8.9-5.7,13.9l-36.5,84.6h-7.3c-1.4-3.8-3.1-7.7-5.2-11.8l-17.9-38.1l-42.2-99c-8.5-19.2-13.6-29.6-15.3-31.2
		c-1.7-1.6-11.8-4.9-30.2-9.9c-0.9-2.5-1.4-4.3-1.4-5.4L1225.8,424.5z"/>
	<path class="st0" d="M1462.9,426.9h17.6l7.8,0.5l6.1-0.5c16.1,0,26.2,0.2,30.1,0.5l0.2,4.5c0,22.2-0.3,43.7-0.9,64.5
		c-0.5,12.3-0.7,19.3-0.7,21c0,27.7,0.9,45,2.7,51.9c1.8,6.9,6.1,12.5,12.8,16.6c6.7,4.2,14.8,6.3,24.3,6.3c11.5,0,22.5-2.4,33-7.2
		c10.5-4.8,19.4-10.7,26.9-17.6c0.8-6,1.2-12.6,1.2-19.8c0-23.4,0.2-39.3,0.7-47.5c0.2-4.9,0.2-9.1,0.2-12.7
		c0-25.5-1.3-39.9-3.8-43.2c-2.5-3.3-12.1-5.8-28.8-7.6c-5.5-0.6-9.5-1.2-12-1.7c-1.3-2-1.9-3.6-1.9-4.7l0.7-2.6
		c4.1-0.5,8.1-0.7,12-0.7l37.5,0.5c13.4-0.3,20.5-0.5,21.2-0.5c1.7,0,3.4,0.1,5,0.2l0.5,17.2c-1.1,23.9-1.7,53.5-1.9,88.8l-0.5,19.1
		l0.9,32.1c1.4,2.5,2.7,4,3.8,4.5c1.9,0.8,5.7,1.2,11.6,1.2h2.1c2,0,7.9,0.5,17.5,1.4c0.2,2,0.2,3.5,0.2,4.5v2.6
		c-21.1,4.6-38.2,9.1-51.2,13.7c-5.2,1.7-9.6,3-13.2,3.8c-0.8-5.5-1.2-8.9-1.2-10.2v-19.1c0-0.8-0.1-2.9-0.2-6.4
		c-2,1.4-4.4,3.2-7.1,5.2c-12.4,9.6-25.6,17.7-39.4,24.3c-9.3,4.6-18.3,6.8-26.9,6.8c-16.5,0-30-6.1-40.4-18.4
		c-10.5-12.3-15.8-33.2-15.8-62.8c0-1.6,0.1-4.4,0.2-8.5c0.6-7.6,0.9-12.8,0.9-15.8c0-1.1-0.1-4.6-0.2-10.4
		c-0.2-2.5-0.2-4.7-0.2-6.6c0-1.4,0.1-4.6,0.2-9.6c0.2-5,0.2-8.5,0.2-10.5c0-2.7-0.1-5-0.2-7.1l-0.5-12.5l0.2-6.6
		c0-2.5-1.3-4.8-3.8-6.8c-9.9-2.7-16.4-4.2-19.5-4.6c-3.1-0.4-5.8-1.1-8.1-2V426.9z"/>
</g>
</svg>
